# xmcd CD database file
#
# Track frame offsets:
#	150
#	17880
#	30345
#	46512
#	54820
#	73712
#	82782
#	97420
#	107425
#	120145
#	133320
#
# Disc length: 1986 seconds
#
# Revision: 3
# Processed by: cddbd v1.5.2PL0 Copyright (c) Steve Scherf et al.
# Submitted via: CDex 1.51
#
DISCID=7d07c00b
DTITLE=Various Artist - Sweet Home Chicago
DYEAR=1994
DGENRE=Blues
TTITLE0=My Luck Dont Ever Change - Luther Allison
TTITLE1=Gotta Move On Up - Luther Allison
TTITLE2=Top Of The Harp - Louis Meyers
TTITLE3=Thats All Right - Louis Meyers
TTITLE4=Move On Out Of Town - Big Mojo
TTITLE5=Slow Down Baby - Big Mojo
TTITLE6=Thats Why Im Crying - Magic Sam
TTITLE7=Riding High - Magic Sam And Eddie Shaw
TTITLE8=Bad Luck Blues - Magic Sam
TTITLE9=Blues For The West Side - Magic Sam and Eddie Shaw
TTITLE10=Coming Down With The Blues - Lucky Lopez and The Jazz Prophets
EXTD=YEAR: 1994
EXTT0=
EXTT1=
EXTT2=
EXTT3=
EXTT4=
EXTT5=
EXTT6=
EXTT7=
EXTT8=
EXTT9=
EXTT10=
PLAYORDER=
